<svg width="106" height="25" viewBox="0 0 106 25" fill="none" xmlns="http://www.w3.org/2000/svg">
<path fill-rule="evenodd" clip-rule="evenodd" d="M97.6 7.98099V15.5491C97.6 19.2498 99.4399 20.3457 102.239 20.3457C103.491 20.3795 104.727 20.0603 105.807 19.4245V15.7874C105.123 16.1592 104.357 16.3531 103.578 16.3512C102.572 16.3512 102.12 15.8509 102.12 14.8026V7.98099H105.87V4.10571H102.12V0H97.6V4.10571H95.689V7.98099H97.6ZM48.535 4.1055H44V24.8482H48.527V17.9948C49.1121 18.7536 49.866 19.3644 50.73 19.7781C51.593 20.1919 52.542 20.3971 53.4979 20.3773C57.257 20.3773 60.7689 17.5263 60.7689 12.1262C60.7689 6.7261 57.225 3.80371 53.506 3.80371C52.527 3.78519 51.558 4.01321 50.6901 4.46689C49.821 4.92059 49.08 5.58551 48.535 6.40051V4.1055ZM65.13 6.23849C63.521 7.78229 62.5 10 62.475 12.1182C62.5699 14.3477 63.521 16.4542 65.13 17.998C66.739 19.5417 68.881 20.4036 71.109 20.4036C73.337 20.4036 75.479 19.5417 77.088 17.998C78.697 16.4542 79.6479 14.3477 79.744 12.1182C79.6479 9.8887 78.697 7.78229 77.088 6.23849C75.479 4.6947 73.337 3.83289 71.109 3.83289C68.881 3.83289 66.739 4.6947 65.13 6.23849ZM80.95 17.9632L82.884 14.9852C84.329 16.1197 86.0861 16.7846 87.9191 16.8911C89.2271 16.8911 89.822 16.4146 89.822 15.6364C89.822 14.7794 88.621 14.4216 87.1801 13.9926C86.9659 13.9286 86.746 13.863 86.524 13.794C84.288 13.1349 81.766 12.0946 81.766 8.9339C81.766 5.77332 84.3829 3.8674 87.594 3.8674C89.715 3.89911 91.782 4.54141 93.548 5.71771L91.8199 8.84659C90.526 8.00171 89.045 7.48901 87.507 7.35361C86.405 7.35361 85.8419 7.83011 85.8419 8.513C85.8419 9.32651 87.0859 9.74841 88.606 10.2639C88.7629 10.317 88.923 10.3712 89.085 10.4269C91.313 11.1654 93.905 12.2455 93.905 15.1917C93.905 18.7415 91.257 20.3456 87.808 20.3456C85.3209 20.3371 82.908 19.4988 80.95 17.9632ZM56.234 12.0468C56.234 9.39441 54.45 7.63141 52.333 7.63141C50.2161 7.63141 48.464 9.39441 48.464 12.1024C48.464 14.8104 50.224 16.5098 52.333 16.5098C54.442 16.5098 56.234 14.8025 56.234 12.0627V12.0468ZM75.28 12.1182C75.302 11.5508 75.202 10.9846 75.002 10.4534C74.802 9.92209 74.4969 9.43649 74.106 9.02551C73.715 8.61441 73.245 8.28619 72.725 8.06039C72.205 7.83459 71.644 7.7157 71.077 7.71082C68.485 7.71082 66.939 9.7041 66.939 12.1182C66.916 12.6867 67.0079 13.2539 67.209 13.7861C67.41 14.3184 67.715 14.8048 68.1071 15.2166C68.499 15.6284 68.969 15.9572 69.49 16.1834C70.012 16.4096 70.573 16.5287 71.141 16.5336C73.734 16.5336 75.28 14.5324 75.28 12.1182Z" fill="#2B2B2B"/>
<path fill-rule="evenodd" clip-rule="evenodd" d="M0 1H8.52301C10.895 1 12.735 1.65634 13.963 2.85732C14.506 3.42502 14.926 4.09383 15.201 4.82427C15.475 5.55461 15.598 6.33167 15.562 7.10952C15.621 8.35585 15.263 9.58686 14.542 10.6136C13.821 11.6404 12.777 12.4061 11.57 12.7931L16.13 19.3494H11.364L7.31601 13.4843H4.10501V19.3563H0V1ZM8.26001 9.90939C10.263 9.90939 11.407 8.86201 11.407 7.26313C11.407 5.53145 10.178 4.63778 8.18201 4.63778H4.10501V9.90939H8.26001Z" fill="#7E7E7E"/>
<path fill-rule="evenodd" clip-rule="evenodd" d="M17.641 11.5381C17.641 7.06399 20.883 3.37723 25.522 3.37723C30.85 3.37723 33.292 7.44599 33.292 11.8888C33.292 12.2396 33.292 12.6683 33.236 13.058H22.136C22.275 13.9565 22.753 14.7708 23.474 15.3396C24.195 15.9085 25.107 16.1902 26.029 16.129C26.752 16.141 27.47 16.0044 28.136 15.7279C28.803 15.4514 29.403 15.0411 29.898 14.5234L32.491 16.7916C31.713 17.746 30.718 18.5082 29.586 19.017C28.454 19.526 27.217 19.7675 25.974 19.7224C24.867 19.7698 23.763 19.5905 22.73 19.1962C21.698 18.8018 20.76 18.2007 19.977 17.4312C19.193 16.6617 18.581 15.7405 18.179 14.726C17.777 13.7115 17.593 12.6259 17.641 11.5381ZM28.891 10.2832C28.622 8.29559 27.433 6.94709 25.522 6.94709C23.611 6.94709 22.43 8.26438 22.073 10.2832H28.891Z" fill="#7E7E7E"/>
<path fill-rule="evenodd" clip-rule="evenodd" d="M35.8359 3.67358H40.657V8.35029H35.8359V3.67358ZM35.8359 14.6716H40.657V19.3483H35.8359V14.6716Z" fill="#7E7E7E"/>
</svg>
